<?xml version="1.0" encoding="utf-8"?>
<!-- Generator: Adobe Illustrator 23.0.3, SVG Export Plug-In . SVG Version: 6.00 Build 0)  -->
<svg version="1.1" id="Calque_1" xmlns="http://www.w3.org/2000/svg" xmlns:xlink="http://www.w3.org/1999/xlink" x="0px" y="0px" width="130px" height="93px"
	 viewBox="0 0 130 47" style="enable-background:new 0 0 130 47;" xml:space="preserve">
<style type="text/css">
	.st0{fill:#006B9C;}
	.st1{fill:#DC0061;}
	.st2{fill:none;}
</style>
<g>
	<g>
		<path class="st0" d="M50.6,46.9h-5.8V24.4c0-4.5-3-7.9-7.6-7.9s-7.6,3.4-7.6,7.9v22.5h-5.8V24.4c0-4.5-3-7.9-7.6-7.9
			s-7.6,3.4-7.6,7.9v22.5H2.7V24.6c0-7.6,5.5-13.4,13.4-13.4c4.8,0,8.4,2.2,10.5,5.8c2.1-3.5,5.8-5.8,10.6-5.8
			c8,0,13.4,5.8,13.4,13.4V46.9z"/>
		<g>
			<path class="st0" d="M120.5,47h-5.8V11.3h5.8V47z"/>
		</g>
		<g>
			<path class="st0" d="M67.5,46.9l3.1-4.8c-5.9-1.3-9.9-7.4-9-14c1-7,7-12,13.4-11.1c3.8,0.5,6.7,2.6,8.3,5.6l3.4-5.1
				c-2.6-3.1-6.4-5.3-10.9-5.9c-9.6-1.3-18.5,5.8-19.9,15.8C54.7,36,59.8,44.1,67.5,46.9z"/>
		</g>
		<path class="st1" d="M91.3,41.3l8.5-12.2c2.7-3.9,4.3-6.7,5.1-9.2c0.7-2.1,1-4.1,0.9-6.3l0,0c0-4.3-2-8.4-5.5-10.9l-0.1-0.1
			c-0.2-0.1-0.4-0.3-0.6-0.4c-0.1-0.1-0.3-0.2-0.5-0.3c-0.1-0.1-0.3-0.2-0.4-0.3c-0.3-0.2-0.6-0.3-1-0.5c-0.1,0-0.2-0.1-0.3-0.1
			c-0.2-0.1-0.3-0.1-0.5-0.2l0,0c-1-0.4-2.1-0.6-3.2-0.8l-3.3,5.1c0.4,0.1,0.9,0.1,1.3,0.1c2,0,3.6,0.5,4.8,1.2l0.1,0.1
			c0.1,0.1,0.3,0.2,0.4,0.3c2,1.5,3,3.7,3.3,5.5c0.6,3.9-0.1,6.6-4.9,13.6l-14.6,21h21.9l3.6-5.6v-0.2h-15V41.3z"/>
		<path class="st1" d="M120.3,6.5h-5.5c-0.2,0-0.4-0.2-0.4-0.4V0.6c0-0.2,0.2-0.4,0.4-0.4h5.5c0.2,0,0.4,0.2,0.4,0.4v5.5
			C120.7,6.3,120.5,6.5,120.3,6.5z"/>
	</g>
	<g>
		<path class="st2" d="M120.5,82.6h-5.8V46.9h5.8V82.6z"/>
	</g>
	<g>
		<path class="st2" d="M120.5,0.3h-5.8v-35.7h5.8V0.3z"/>
	</g>
	<g>
		<path class="st2" d="M120.5,30.5v-5.8h35.7v5.8H120.5z"/>
	</g>
	<g>
		<path class="st2" d="M-33,30.5v-5.8H2.7v5.8H-33z"/>
	</g>
</g>
</svg>
